<svg width="71" height="19" viewBox="0 0 71 19" fill="none" xmlns="http://www.w3.org/2000/svg">
<path d="M63.9933 0.749893C63.6138 0.275888 63.0394 0 62.4322 0H2C0.895432 0 0 0.895431 0 2V17C0 18.1046 0.895424 19 2 19H62.4322C63.0394 19 63.6138 18.7241 63.9933 18.2501L69.999 10.7501C70.5841 10.0194 70.5841 8.9806 69.999 8.24989L63.9933 0.749893Z" fill="#5A47AB"/>
<path d="M7.344 13.048C6.78933 13.048 6.288 12.9253 5.84 12.68C5.39733 12.4347 5.048 12.096 4.792 11.664C4.54133 11.2267 4.416 10.7387 4.416 10.2C4.416 9.66133 4.54133 9.176 4.792 8.744C5.048 8.30667 5.4 7.96533 5.848 7.72C6.296 7.47467 6.79733 7.352 7.352 7.352C7.768 7.352 8.152 7.42133 8.504 7.56C8.856 7.69867 9.15467 7.90133 9.4 8.168L9.024 8.544C8.58667 8.10133 8.03467 7.88 7.368 7.88C6.92533 7.88 6.52267 7.98133 6.16 8.184C5.79733 8.38667 5.512 8.664 5.304 9.016C5.10133 9.368 5 9.76267 5 10.2C5 10.6373 5.10133 11.032 5.304 11.384C5.512 11.736 5.79733 12.0133 6.16 12.216C6.52267 12.4187 6.92533 12.52 7.368 12.52C8.04 12.52 8.592 12.296 9.024 11.848L9.4 12.224C9.15467 12.4907 8.85333 12.696 8.496 12.84C8.144 12.9787 7.76 13.048 7.344 13.048ZM10.542 7.064H11.11V13H10.542V7.064ZM14.4104 13.04C14.0051 13.04 13.6398 12.9493 13.3144 12.768C12.9891 12.5813 12.7331 12.3253 12.5464 12C12.3598 11.6747 12.2664 11.3067 12.2664 10.896C12.2664 10.4853 12.3598 10.1173 12.5464 9.792C12.7331 9.46667 12.9891 9.21333 13.3144 9.032C13.6398 8.85067 14.0051 8.76 14.4104 8.76C14.8158 8.76 15.1811 8.85067 15.5064 9.032C15.8318 9.21333 16.0851 9.46667 16.2664 9.792C16.4531 10.1173 16.5464 10.4853 16.5464 10.896C16.5464 11.3067 16.4531 11.6747 16.2664 12C16.0851 12.3253 15.8318 12.5813 15.5064 12.768C15.1811 12.9493 14.8158 13.04 14.4104 13.04ZM14.4104 12.536C14.7091 12.536 14.9758 12.4693 15.2104 12.336C15.4504 12.1973 15.6371 12.0027 15.7704 11.752C15.9038 11.5013 15.9704 11.216 15.9704 10.896C15.9704 10.576 15.9038 10.2907 15.7704 10.04C15.6371 9.78933 15.4504 9.59733 15.2104 9.464C14.9758 9.32533 14.7091 9.256 14.4104 9.256C14.1118 9.256 13.8424 9.32533 13.6024 9.464C13.3678 9.59733 13.1811 9.78933 13.0424 10.04C12.9091 10.2907 12.8424 10.576 12.8424 10.896C12.8424 11.216 12.9091 11.5013 13.0424 11.752C13.1811 12.0027 13.3678 12.1973 13.6024 12.336C13.8424 12.4693 14.1118 12.536 14.4104 12.536ZM18.8341 13.04C18.4927 13.04 18.1647 12.992 17.8501 12.896C17.5407 12.7947 17.2981 12.6693 17.1221 12.52L17.3781 12.072C17.5541 12.2107 17.7754 12.3253 18.0421 12.416C18.3087 12.5013 18.5861 12.544 18.8741 12.544C19.2581 12.544 19.5407 12.4853 19.7221 12.368C19.9087 12.2453 20.0021 12.0747 20.0021 11.856C20.0021 11.7013 19.9514 11.5813 19.8501 11.496C19.7487 11.4053 19.6207 11.3387 19.4661 11.296C19.3114 11.248 19.1061 11.2027 18.8501 11.16C18.5087 11.096 18.2341 11.032 18.0261 10.968C17.8181 10.8987 17.6394 10.784 17.4901 10.624C17.3461 10.464 17.2741 10.2427 17.2741 9.96C17.2741 9.608 17.4207 9.32 17.7141 9.096C18.0074 8.872 18.4154 8.76 18.9381 8.76C19.2101 8.76 19.4821 8.79733 19.7541 8.872C20.0261 8.94133 20.2501 9.03467 20.4261 9.152L20.1781 9.608C19.8314 9.368 19.4181 9.248 18.9381 9.248C18.5754 9.248 18.3007 9.312 18.1141 9.44C17.9327 9.568 17.8421 9.736 17.8421 9.944C17.8421 10.104 17.8927 10.232 17.9941 10.328C18.1007 10.424 18.2314 10.496 18.3861 10.544C18.5407 10.5867 18.7541 10.632 19.0261 10.68C19.3621 10.744 19.6314 10.808 19.8341 10.872C20.0367 10.936 20.2101 11.0453 20.3541 11.2C20.4981 11.3547 20.5701 11.568 20.5701 11.84C20.5701 12.208 20.4154 12.5013 20.1061 12.72C19.8021 12.9333 19.3781 13.04 18.8341 13.04ZM25.2841 11.072H21.7641C21.7961 11.5093 21.9641 11.864 22.2681 12.136C22.5721 12.4027 22.9561 12.536 23.4201 12.536C23.6815 12.536 23.9215 12.4907 24.1401 12.4C24.3588 12.304 24.5481 12.1653 24.7081 11.984L25.0281 12.352C24.8415 12.576 24.6068 12.7467 24.3241 12.864C24.0468 12.9813 23.7401 13.04 23.4041 13.04C22.9721 13.04 22.5881 12.9493 22.2521 12.768C21.9215 12.5813 21.6628 12.3253 21.4761 12C21.2895 11.6747 21.1961 11.3067 21.1961 10.896C21.1961 10.4853 21.2841 10.1173 21.4601 9.792C21.6415 9.46667 21.8868 9.21333 22.1961 9.032C22.5108 8.85067 22.8628 8.76 23.2521 8.76C23.6415 8.76 23.9908 8.85067 24.3001 9.032C24.6095 9.21333 24.8521 9.46667 25.0281 9.792C25.2041 10.112 25.2921 10.48 25.2921 10.896L25.2841 11.072ZM23.2521 9.248C22.8468 9.248 22.5055 9.37867 22.2281 9.64C21.9561 9.896 21.8015 10.232 21.7641 10.648H24.7481C24.7108 10.232 24.5535 9.896 24.2761 9.64C24.0041 9.37867 23.6628 9.248 23.2521 9.248ZM30.758 12.744C30.6513 12.84 30.518 12.9147 30.358 12.968C30.2033 13.016 30.0407 13.04 29.87 13.04C29.4753 13.04 29.1713 12.9333 28.958 12.72C28.7447 12.5067 28.638 12.2053 28.638 11.816V9.272H27.886V8.792H28.638V7.872H29.206V8.792H30.486V9.272H29.206V11.784C29.206 12.0347 29.2673 12.2267 29.39 12.36C29.518 12.488 29.6993 12.552 29.934 12.552C30.0513 12.552 30.1633 12.5333 30.27 12.496C30.382 12.4587 30.478 12.4053 30.558 12.336L30.758 12.744ZM33.936 8.76C34.464 8.76 34.8827 8.91467 35.192 9.224C35.5067 9.528 35.664 9.97333 35.664 10.56V13H35.096V10.616C35.096 10.1787 34.9867 9.84533 34.768 9.616C34.5493 9.38667 34.2373 9.272 33.832 9.272C33.3787 9.272 33.0187 9.408 32.752 9.68C32.4907 9.94667 32.36 10.3173 32.36 10.792V13H31.792V7.064H32.36V9.528C32.5147 9.28267 32.728 9.09333 33 8.96C33.272 8.82667 33.584 8.76 33.936 8.76ZM40.8857 11.072H37.3657C37.3977 11.5093 37.5657 11.864 37.8697 12.136C38.1737 12.4027 38.5577 12.536 39.0217 12.536C39.283 12.536 39.523 12.4907 39.7417 12.4C39.9604 12.304 40.1497 12.1653 40.3097 11.984L40.6297 12.352C40.443 12.576 40.2084 12.7467 39.9257 12.864C39.6484 12.9813 39.3417 13.04 39.0057 13.04C38.5737 13.04 38.1897 12.9493 37.8537 12.768C37.523 12.5813 37.2644 12.3253 37.0777 12C36.891 11.6747 36.7977 11.3067 36.7977 10.896C36.7977 10.4853 36.8857 10.1173 37.0617 9.792C37.243 9.46667 37.4884 9.21333 37.7977 9.032C38.1124 8.85067 38.4644 8.76 38.8537 8.76C39.243 8.76 39.5924 8.85067 39.9017 9.032C40.211 9.21333 40.4537 9.46667 40.6297 9.792C40.8057 10.112 40.8937 10.48 40.8937 10.896L40.8857 11.072ZM38.8537 9.248C38.4484 9.248 38.107 9.37867 37.8297 9.64C37.5577 9.896 37.403 10.232 37.3657 10.648H40.3497C40.3124 10.232 40.155 9.896 39.8777 9.64C39.6057 9.37867 39.2644 9.248 38.8537 9.248ZM44.2636 7.4H46.5436C47.1356 7.4 47.6582 7.52 48.1116 7.76C48.5649 7.99467 48.9169 8.32533 49.1676 8.752C49.4182 9.17333 49.5436 9.656 49.5436 10.2C49.5436 10.744 49.4182 11.2293 49.1676 11.656C48.9169 12.0773 48.5649 12.408 48.1116 12.648C47.6582 12.8827 47.1356 13 46.5436 13H44.2636V7.4ZM46.5116 12.488C47.0022 12.488 47.4316 12.392 47.7996 12.2C48.1676 12.0027 48.4529 11.7333 48.6556 11.392C48.8582 11.0453 48.9596 10.648 48.9596 10.2C48.9596 9.752 48.8582 9.35733 48.6556 9.016C48.4529 8.66933 48.1676 8.4 47.7996 8.208C47.4316 8.01067 47.0022 7.912 46.5116 7.912H44.8556V12.488H46.5116ZM52.4729 13.04C52.0676 13.04 51.7023 12.9493 51.3769 12.768C51.0516 12.5813 50.7956 12.3253 50.6089 12C50.4223 11.6747 50.3289 11.3067 50.3289 10.896C50.3289 10.4853 50.4223 10.1173 50.6089 9.792C50.7956 9.46667 51.0516 9.21333 51.3769 9.032C51.7023 8.85067 52.0676 8.76 52.4729 8.76C52.8783 8.76 53.2436 8.85067 53.5689 9.032C53.8943 9.21333 54.1476 9.46667 54.3289 9.792C54.5156 10.1173 54.6089 10.4853 54.6089 10.896C54.6089 11.3067 54.5156 11.6747 54.3289 12C54.1476 12.3253 53.8943 12.5813 53.5689 12.768C53.2436 12.9493 52.8783 13.04 52.4729 13.04ZM52.4729 12.536C52.7716 12.536 53.0383 12.4693 53.2729 12.336C53.5129 12.1973 53.6996 12.0027 53.8329 11.752C53.9663 11.5013 54.0329 11.216 54.0329 10.896C54.0329 10.576 53.9663 10.2907 53.8329 10.04C53.6996 9.78933 53.5129 9.59733 53.2729 9.464C53.0383 9.32533 52.7716 9.256 52.4729 9.256C52.1743 9.256 51.9049 9.32533 51.6649 9.464C51.4303 9.59733 51.2436 9.78933 51.1049 10.04C50.9716 10.2907 50.9049 10.576 50.9049 10.896C50.9049 11.216 50.9716 11.5013 51.1049 11.752C51.2436 12.0027 51.4303 12.1973 51.6649 12.336C51.9049 12.4693 52.1743 12.536 52.4729 12.536ZM57.4886 13.04C57.0832 13.04 56.7179 12.9493 56.3926 12.768C56.0672 12.5813 55.8112 12.3253 55.6246 12C55.4379 11.6747 55.3446 11.3067 55.3446 10.896C55.3446 10.4853 55.4379 10.1173 55.6246 9.792C55.8112 9.46667 56.0672 9.21333 56.3926 9.032C56.7179 8.85067 57.0832 8.76 57.4886 8.76C57.8939 8.76 58.2592 8.85067 58.5846 9.032C58.9099 9.21333 59.1632 9.46667 59.3446 9.792C59.5312 10.1173 59.6246 10.4853 59.6246 10.896C59.6246 11.3067 59.5312 11.6747 59.3446 12C59.1632 12.3253 58.9099 12.5813 58.5846 12.768C58.2592 12.9493 57.8939 13.04 57.4886 13.04ZM57.4886 12.536C57.7872 12.536 58.0539 12.4693 58.2886 12.336C58.5286 12.1973 58.7152 12.0027 58.8486 11.752C58.9819 11.5013 59.0486 11.216 59.0486 10.896C59.0486 10.576 58.9819 10.2907 58.8486 10.04C58.7152 9.78933 58.5286 9.59733 58.2886 9.464C58.0539 9.32533 57.7872 9.256 57.4886 9.256C57.1899 9.256 56.9206 9.32533 56.6806 9.464C56.4459 9.59733 56.2592 9.78933 56.1206 10.04C55.9872 10.2907 55.9206 10.576 55.9206 10.896C55.9206 11.216 55.9872 11.5013 56.1206 11.752C56.2592 12.0027 56.4459 12.1973 56.6806 12.336C56.9206 12.4693 57.1899 12.536 57.4886 12.536ZM61.3282 9.616C61.4615 9.33333 61.6589 9.12 61.9202 8.976C62.1869 8.832 62.5149 8.76 62.9042 8.76V9.312L62.7682 9.304C62.3255 9.304 61.9789 9.44 61.7282 9.712C61.4775 9.984 61.3522 10.3653 61.3522 10.856V13H60.7842V8.792H61.3282V9.616Z" fill="white"/>
</svg>
