<svg width="11" height="11" viewBox="0 0 11 11" fill="none" xmlns="http://www.w3.org/2000/svg">
<path d="M2.84677 1.79512C2.84677 2.45033 2.27885 2.98148 1.57829 2.98148C0.877731 2.98148 0.309814 2.45033 0.309814 1.79512C0.309814 1.13992 0.877731 0.608765 1.57829 0.608765C2.27885 0.608765 2.84677 1.13992 2.84677 1.79512Z" fill="white"/>
<path d="M0.483281 3.8535H2.65162V10.4241H0.483281V3.8535Z" fill="white"/>
<path d="M6.14264 3.8535H3.9743V10.4241H6.14264C6.14264 10.4241 6.14264 8.35558 6.14264 7.06225C6.14264 6.28597 6.4077 5.50629 7.46532 5.50629C8.66057 5.50629 8.65338 6.52218 8.6478 7.3092C8.64052 8.33795 8.65791 9.38778 8.65791 10.4241H10.8262V6.95629C10.8079 4.74199 10.2309 3.72169 8.33266 3.72169C7.20537 3.72169 6.50659 4.23347 6.14264 4.6965V3.8535Z" fill="white"/>
</svg>
