<svg width="13" height="11" viewBox="0 0 13 11" fill="none" xmlns="http://www.w3.org/2000/svg">
<path d="M3.96112 10.5164C2.5031 10.5164 1.14397 10.0862 0 9.3439C0.971265 9.40766 2.68533 9.25497 3.75147 8.2233C2.14764 8.14863 1.42434 6.90074 1.33 6.36745C1.46627 6.42078 2.11619 6.48478 2.48308 6.33546C0.638151 5.86616 0.355122 4.22364 0.418018 3.72235C0.763942 3.96766 1.35097 4.05299 1.58158 4.03165C-0.137558 2.78376 0.480913 0.906589 0.784907 0.50129C2.01863 2.23527 3.86758 3.20914 6.15499 3.26331C6.11186 3.07142 6.08908 2.87164 6.08908 2.66644C6.08908 1.19381 7.26238 0 8.70972 0C9.46594 0 10.1473 0.325897 10.6257 0.847185C11.131 0.727054 11.8915 0.445836 12.2633 0.202649C12.0759 0.885257 11.4925 1.45469 11.1396 1.66575C11.1367 1.65854 11.1425 1.67293 11.1396 1.66575C11.4496 1.61818 12.2884 1.45464 12.6197 1.22656C12.4559 1.61004 11.8373 2.24765 11.3297 2.60461C11.4241 6.83022 8.23729 10.5164 3.96112 10.5164Z" fill="white"/>
</svg>
